<svg width="39" height="35" viewBox="0 0 39 35" fill="none" xmlns="http://www.w3.org/2000/svg">
<path d="M19.4999 15.6296V10.6305M19.4999 20.6286H19.5162M16.0874 28.0558L18.4599 30.8363C18.8127 31.2498 18.9891 31.4565 19.2054 31.5304C19.3948 31.5952 19.605 31.5952 19.7944 31.5304C20.0107 31.4565 20.1871 31.2498 20.5399 30.8363L22.9124 28.0558C23.3888 27.4976 23.627 27.2184 23.9175 27.0053C24.3048 26.7212 24.7622 26.5202 25.2532 26.4183C25.6215 26.3419 26.0185 26.3419 26.8124 26.3419C29.0839 26.3419 30.2196 26.3419 31.1155 26.0157C32.31 25.5808 33.259 24.7466 33.7538 23.6967C34.1249 22.9093 34.1249 21.911 34.1249 19.9145V11.7731C34.1249 9.37334 34.1249 8.17344 33.5936 7.25685C33.1262 6.45059 32.3804 5.79508 31.4631 5.38427C30.4203 4.91724 29.0552 4.91724 26.3249 4.91724H12.6749C9.94465 4.91724 8.57952 4.91724 7.5367 5.38427C6.61941 5.79508 5.87363 6.45059 5.40625 7.25685C4.87491 8.17344 4.87491 9.37334 4.87491 11.7731V19.9145C4.87491 21.911 4.87491 22.9093 5.246 23.6967C5.74078 24.7466 6.68981 25.5808 7.88433 26.0157C8.78021 26.3419 9.91594 26.3419 12.1874 26.3419C12.9813 26.3419 13.3783 26.3419 13.7466 26.4183C14.2377 26.5202 14.695 26.7212 15.0823 27.0053C15.3729 27.2184 15.611 27.4976 16.0874 28.0558Z" stroke="#2C2C2D" stroke-opacity="0.59" stroke-width="1.83213" stroke-linecap="round" stroke-linejoin="round"/>
</svg>
