<svg width="345" height="424" viewBox="0 0 345 424" fill="none" xmlns="http://www.w3.org/2000/svg">
<g clip-path="url(#clip0_44_886)">
<path d="M0.131989 211.999C0.131989 255.877 10.9832 296.64 29.5709 330.456C60.546 386.813 113.005 423.868 172.503 423.868C267.698 423.868 344.871 329.011 344.871 212.001C344.871 94.9915 267.698 0.131882 172.5 0.131882C77.3019 0.131882 0.131989 94.9889 0.131989 211.999ZM271.04 210.78C271.04 287.72 226.922 350.096 172.5 350.096C118.078 350.096 73.9603 287.723 73.9603 210.78C73.9603 133.837 118.078 71.4645 172.5 71.4645C226.922 71.4645 271.04 133.837 271.04 210.78Z" fill="#B70E0C" stroke="#B70E0C" stroke-miterlimit="10"/>
<path d="M29.5709 330.457L95.5518 296.54" stroke="white" stroke-width="4.8" stroke-miterlimit="10"/>
<path d="M249.256 123.406L313.956 90.9086" stroke="white" stroke-width="4.65" stroke-miterlimit="10"/>
<path d="M31.0438 90.9086L95.4885 125.215" stroke="white" stroke-width="4.72" stroke-miterlimit="10"/>
<path d="M249.612 296.87L315.173 330.921" stroke="white" stroke-width="4.81" stroke-miterlimit="10"/>
<path d="M173.355 349.613L172.5 423.868" stroke="white" stroke-width="4.8" stroke-miterlimit="10"/>
<path d="M0.131989 210.751L73.9497 210.804" stroke="#350E0C" stroke-width="4.77" stroke-miterlimit="10"/>
<path d="M271.04 211.97L344.857 212.022" stroke="#350E0C" stroke-width="4.77" stroke-miterlimit="10"/>
<path d="M172.5 0.131882L172.115 71.4645" stroke="white" stroke-width="4.63" stroke-miterlimit="10"/>
<path d="M89.428 397.68L127.855 334.872" stroke="#350E0C" stroke-width="4.76" stroke-miterlimit="10"/>
<path d="M256.773 396.422L216.963 335.138" stroke="#350E0C" stroke-width="4.73" stroke-miterlimit="10"/>
<path d="M88.491 268.701L129.789 329.061H172.115V183.954H140.163L111.157 153.611H88.491V268.701Z" fill="#B70E0C"/>
<path d="M258.227 268.701L216.311 329.061H173.355V183.954H205.785L235.221 153.611H258.227V268.701Z" fill="#B70E0C"/>
<path d="M111.181 136.398V151.335L140.773 181.82H172.115V159.567H162.295L162.739 159.108V153.611L153.852 136.398H121.551L117.89 131.216H111.181V136.398Z" fill="#B70E0C"/>
<path d="M234.215 136.398V151.335L204.623 181.82H173.281V159.567H183.098L182.657 159.108V153.611L191.544 136.398H223.842L227.503 131.216H234.215V136.398Z" fill="#B70E0C"/>
<path d="M89.0822 244.327L171.521 243.037" stroke="white" stroke-width="5.33" stroke-miterlimit="10"/>
<path d="M172.888 243.214L258.227 241.336" stroke="white" stroke-width="5.55" stroke-miterlimit="10"/>
<path d="M126.448 130.279H160.604L160.332 139.616L166.297 153.611V158.042H178.772V153.611L185.822 139.616V130.279H219.788V97.9641H126.448V130.279Z" fill="#A6A6A6"/>
<path d="M99.9941 41.7525H112.756V44.1131H102.797V51.6037H111.239V53.9644H102.797V63.8816H99.9941V41.7498V41.7525Z" fill="white"/>
<path d="M38.1838 147.442H50.946V149.803H40.987V156.752H49.394V159.147H40.987V167.176H51.2839V169.571H38.1838V147.439V147.442Z" fill="white"/>
<path d="M38.1811 249.325H50.9434V251.686H40.9843V258.636H49.3913V261.031H40.9843V269.059H51.2812V271.454H38.1811V249.323V249.325Z" fill="white"/>
<path d="M245.159 56.3619H237.09L234.962 63.1088H232.093L239.59 40.9771H242.762L250.259 63.1088H247.255L245.162 56.3619H245.159ZM244.449 54.1015L243.404 50.7281C242.997 49.4911 242.614 48.2593 242.255 47.0329C241.894 45.8064 241.535 44.5536 241.176 43.2717H241.041C240.703 44.5536 240.355 45.8091 239.993 47.0329C239.634 48.2593 239.252 49.4911 238.845 50.7281L237.797 54.1015H244.449Z" fill="white"/>
<path d="M295.701 148.449H302.284C303.409 148.449 304.438 148.55 305.372 148.753C306.307 148.956 307.104 149.27 307.769 149.697C308.432 150.124 308.952 150.681 309.321 151.367C309.693 152.052 309.878 152.881 309.878 153.846C309.878 154.948 309.561 155.943 308.933 156.832C308.302 157.72 307.334 158.332 306.03 158.67V158.805C307.65 159.052 308.909 159.614 309.812 160.493C310.712 161.371 311.164 162.574 311.164 164.103C311.164 165.182 310.96 166.126 310.556 166.936C310.15 167.746 309.577 168.421 308.835 168.959C308.094 169.497 307.204 169.903 306.17 170.172C305.135 170.441 303.997 170.579 302.759 170.579H295.704V148.447L295.701 148.449ZM301.777 157.895C303.691 157.895 305.058 157.567 305.879 156.916C306.7 156.265 307.112 155.32 307.112 154.083C307.112 152.846 306.679 151.997 305.813 151.469C304.947 150.942 303.646 150.676 301.915 150.676H298.504V157.895H301.78H301.777ZM302.35 168.352C304.264 168.352 305.747 167.999 306.806 167.29C307.864 166.58 308.392 165.472 308.392 163.966C308.392 162.595 307.875 161.587 306.84 160.946C305.805 160.305 304.309 159.983 302.35 159.983H298.502V168.35H302.35V168.352Z" fill="white"/>
<path d="M295.39 250.38H301.973C303.097 250.38 304.127 250.481 305.061 250.684C305.995 250.887 306.793 251.201 307.458 251.628C308.12 252.055 308.64 252.612 309.01 253.298C309.382 253.983 309.567 254.811 309.567 255.777C309.567 256.879 309.25 257.874 308.622 258.763C307.991 259.651 307.022 260.263 305.718 260.601V260.735C307.339 260.983 308.598 261.545 309.501 262.423C310.401 263.302 310.852 264.504 310.852 266.034C310.852 267.113 310.649 268.057 310.245 268.867C309.839 269.677 309.266 270.352 308.524 270.89C307.782 271.428 306.893 271.834 305.858 272.103C304.823 272.372 303.686 272.509 302.448 272.509H295.392V250.378L295.39 250.38ZM301.466 259.825C303.38 259.825 304.747 259.498 305.568 258.847C306.389 258.195 306.8 257.251 306.8 256.014C306.8 254.777 306.368 253.928 305.502 253.4C304.636 252.873 303.335 252.606 301.603 252.606H298.193V259.825H301.469H301.466ZM302.039 270.283C303.952 270.283 305.436 269.93 306.494 269.22C307.553 268.511 308.081 267.403 308.081 265.897C308.081 264.526 307.563 263.518 306.529 262.877C305.494 262.236 303.997 261.914 302.039 261.914H298.19V270.281H302.039V270.283Z" fill="white"/>
<path d="M196.525 381.749C196.525 379.974 196.773 378.376 197.267 376.959C197.763 375.543 198.449 374.34 199.326 373.348C200.205 372.359 201.245 371.6 202.448 371.072C203.652 370.545 204.964 370.278 206.381 370.278C207.799 370.278 208.913 370.555 209.926 371.104C210.94 371.655 211.771 372.291 212.423 373.011L210.837 374.799C210.251 374.169 209.604 373.668 208.897 373.298C208.187 372.926 207.361 372.742 206.416 372.742C205.357 372.742 204.402 372.95 203.546 373.367C202.691 373.784 201.96 374.38 201.353 375.155C200.746 375.931 200.273 376.87 199.936 377.972C199.598 379.075 199.429 380.312 199.429 381.683C199.429 383.055 199.592 384.331 199.917 385.444C200.244 386.557 200.698 387.509 201.284 388.295C201.87 389.084 202.583 389.691 203.428 390.118C204.272 390.545 205.223 390.759 206.281 390.759C207.339 390.759 208.3 390.545 209.1 390.118C209.9 389.691 210.657 389.084 211.378 388.295L212.964 390.015C212.085 391.028 211.096 391.814 209.992 392.376C208.889 392.938 207.63 393.22 206.21 393.22C204.79 393.22 203.525 392.961 202.343 392.444C201.16 391.927 200.136 391.178 199.27 390.2C198.405 389.221 197.729 388.018 197.246 386.589C196.763 385.162 196.52 383.548 196.52 381.746L196.525 381.749Z" fill="white"/>
<path d="M257.937 343.874C257.937 342.099 258.185 340.5 258.679 339.084C259.175 337.668 259.861 336.465 260.738 335.473C261.617 334.484 262.657 333.724 263.86 333.197C265.064 332.669 266.376 332.403 267.793 332.403C269.211 332.403 270.324 332.68 271.338 333.229C272.352 333.78 273.183 334.415 273.835 335.136L272.249 336.924C271.663 336.293 271.016 335.792 270.309 335.423C269.599 335.051 268.772 334.866 267.827 334.866C266.769 334.866 265.813 335.075 264.958 335.492C264.103 335.908 263.372 336.504 262.765 337.28C262.158 338.055 261.685 338.994 261.347 340.097C261.009 341.199 260.841 342.436 260.841 343.808C260.841 345.179 261.004 346.456 261.329 347.569C261.656 348.682 262.11 349.634 262.696 350.42C263.282 351.209 263.995 351.815 264.839 352.243C265.684 352.67 266.634 352.884 267.693 352.884C268.751 352.884 269.712 352.67 270.512 352.243C271.312 351.815 272.069 351.209 272.79 350.42L274.376 352.14C273.497 353.153 272.507 353.939 271.404 354.5C270.301 355.062 269.042 355.344 267.622 355.344C266.201 355.344 264.937 355.086 263.755 354.569C262.572 354.052 261.548 353.303 260.682 352.324C259.816 351.346 259.141 350.143 258.658 348.714C258.175 347.287 257.932 345.673 257.932 343.871L257.937 343.874Z" fill="white"/>
<path d="M74.9791 332.458H80.5169C83.9378 332.458 86.5377 333.403 88.3168 335.291C90.0958 337.18 90.9827 339.891 90.9827 343.423C90.9827 345.177 90.7584 346.746 90.307 348.128C89.8556 349.51 89.1931 350.681 88.3141 351.636C87.4352 352.593 86.3556 353.324 85.0728 353.828C83.7899 354.334 82.3144 354.587 80.6489 354.587H74.9765V332.456L74.9791 332.458ZM80.3136 352.295C82.903 352.295 84.8431 351.52 86.1365 349.966C87.4299 348.416 88.0766 346.234 88.0766 343.423C88.0766 340.611 87.4299 338.464 86.1365 336.979C84.8431 335.494 82.9004 334.753 80.3136 334.753H77.7823V352.295H80.3136Z" fill="white"/>
<path d="M129.829 370.682H135.367C138.788 370.682 141.388 371.626 143.167 373.515C144.946 375.403 145.833 378.114 145.833 381.646C145.833 383.4 145.608 384.969 145.157 386.352C144.706 387.734 144.043 388.905 143.164 389.859C142.285 390.814 141.205 391.548 139.923 392.051C138.64 392.558 137.164 392.811 135.499 392.811H129.826V370.679L129.829 370.682ZM135.164 390.519C137.753 390.519 139.693 389.743 140.986 388.19C142.28 386.639 142.926 384.458 142.926 381.646C142.926 378.835 142.28 376.688 140.986 375.203C139.693 373.718 137.75 372.976 135.164 372.976H132.632V390.519H135.164Z" fill="white"/>
<path d="M130.188 264.977H132.991V284.713H142.681V287.108H130.188V264.977Z" fill="white"/>
<path d="M144.909 285.455C146.529 283.835 147.971 282.374 149.23 281.068C150.489 279.765 151.547 278.555 152.402 277.442C153.258 276.329 153.91 275.305 154.361 274.372C154.812 273.438 155.037 272.533 155.037 271.655C155.037 270.418 154.699 269.405 154.023 268.619C153.347 267.833 152.323 267.437 150.951 267.437C150.051 267.437 149.217 267.691 148.451 268.197C147.686 268.703 146.989 269.315 146.358 270.035L144.772 268.45C145.672 267.461 146.63 266.667 147.641 266.071C148.654 265.475 149.869 265.177 151.286 265.177C153.289 265.177 154.865 265.757 156.013 266.915C157.162 268.073 157.734 269.608 157.734 271.52C157.734 272.533 157.515 273.551 157.077 274.575C156.639 275.598 156.029 276.656 155.253 277.745C154.477 278.837 153.553 279.971 152.484 281.153C151.415 282.334 150.238 283.587 148.955 284.914C149.541 284.869 150.148 284.824 150.779 284.779C151.41 284.734 152.007 284.711 152.569 284.711H158.814V287.106H144.903V285.452L144.909 285.455Z" fill="white"/>
<path d="M203.343 287.108L198.009 277.763H193.991V287.108H191.188V264.977H198.109C199.233 264.977 200.276 265.085 201.232 265.296C202.187 265.509 203.008 265.863 203.697 266.359C204.383 266.854 204.916 267.495 205.302 268.281C205.684 269.07 205.875 270.035 205.875 271.183C205.875 272.916 205.423 274.298 204.523 275.332C203.623 276.366 202.419 277.075 200.91 277.457L206.513 287.106H203.341L203.343 287.108ZM193.991 275.469H197.705C199.439 275.469 200.767 275.115 201.688 274.406C202.612 273.696 203.071 272.623 203.071 271.185C203.071 269.748 202.609 268.701 201.688 268.115C200.764 267.53 199.437 267.237 197.705 267.237H193.991V275.469Z" fill="white"/>
<path d="M209.116 285.455C210.737 283.835 212.178 282.374 213.437 281.068C214.696 279.765 215.754 278.555 216.61 277.442C217.465 276.329 218.117 275.305 218.568 274.372C219.019 273.438 219.244 272.533 219.244 271.655C219.244 270.418 218.906 269.405 218.23 268.619C217.555 267.833 216.53 267.437 215.158 267.437C214.258 267.437 213.424 267.691 212.658 268.197C211.893 268.703 211.196 269.315 210.565 270.035L208.979 268.45C209.879 267.461 210.837 266.667 211.848 266.071C212.861 265.475 214.076 265.177 215.493 265.177C217.496 265.177 219.072 265.757 220.22 266.915C221.369 268.073 221.941 269.608 221.941 271.52C221.941 272.533 221.722 273.551 221.284 274.575C220.846 275.598 220.236 276.656 219.46 277.745C218.684 278.837 217.76 279.971 216.691 281.153C215.622 282.334 214.445 283.587 213.162 284.914C213.748 284.869 214.355 284.824 214.986 284.779C215.617 284.734 216.214 284.711 216.776 284.711H223.021V287.106H209.111V285.452L209.116 285.455Z" fill="white"/>
<path d="M203.343 220.368L198.009 211.023H193.991V220.368H191.188V198.236H198.109C199.233 198.236 200.276 198.344 201.232 198.555C202.187 198.769 203.008 199.122 203.697 199.618C204.383 200.114 204.916 200.755 205.302 201.541C205.684 202.329 205.875 203.295 205.875 204.442C205.875 206.175 205.423 207.557 204.523 208.591C203.623 209.625 202.419 210.334 200.91 210.717L206.513 220.365H203.341L203.343 220.368ZM193.991 208.728H197.705C199.439 208.728 200.767 208.375 201.688 207.665C202.612 206.956 203.071 205.882 203.071 204.445C203.071 203.007 202.609 201.96 201.688 201.375C200.764 200.789 199.437 200.496 197.705 200.496H193.991V208.728Z" fill="white"/>
<path d="M210.433 218.076H215.361V202.219H211.444V200.43C212.434 200.251 213.294 200.032 214.028 199.774C214.759 199.515 215.416 199.207 216.002 198.845H218.13V218.076H222.586V220.37H210.43V218.076H210.433Z" fill="white"/>
<path d="M128.784 198.745H131.587V218.482H141.277V220.877H128.784V198.745Z" fill="white"/>
<path d="M144.822 218.582H149.75V202.725H145.833V200.937C146.822 200.757 147.683 200.539 148.417 200.28C149.148 200.022 149.805 199.713 150.391 199.352H152.519V218.582H156.974V220.877H144.819V218.582H144.822Z" fill="white"/>
<path d="M144.428 148.449H147.232V168.186H156.921V170.581H144.428V148.449Z" fill="white"/>
<path d="M203.343 169.571L198.009 160.226H193.991V169.571H191.188V147.439H198.109C199.233 147.439 200.276 147.547 201.232 147.758C202.187 147.972 203.008 148.325 203.697 148.821C204.383 149.317 204.916 149.958 205.302 150.744C205.684 151.533 205.875 152.498 205.875 153.645C205.875 155.378 205.423 156.76 204.523 157.794C203.623 158.828 202.419 159.538 200.91 159.92L206.513 169.568H203.341L203.343 169.571ZM193.991 157.931H197.705C199.439 157.931 200.767 157.578 201.688 156.869C202.612 156.159 203.071 155.086 203.071 153.648C203.071 152.211 202.609 151.164 201.688 150.578C200.764 149.992 199.437 149.7 197.705 149.7H193.991V157.931Z" fill="white"/>
<path d="M136.077 109.759H138.819C139.289 109.759 139.717 109.801 140.107 109.886C140.495 109.97 140.831 110.102 141.105 110.279C141.382 110.458 141.599 110.688 141.752 110.975C141.908 111.26 141.984 111.605 141.984 112.009C141.984 112.468 141.852 112.882 141.591 113.254C141.327 113.623 140.926 113.879 140.382 114.019V114.074C141.058 114.177 141.583 114.412 141.958 114.778C142.333 115.145 142.52 115.646 142.52 116.282C142.52 116.733 142.436 117.126 142.267 117.463C142.098 117.801 141.857 118.083 141.549 118.307C141.24 118.532 140.868 118.7 140.437 118.814C140.007 118.927 139.532 118.983 139.017 118.983H136.077V109.762V109.759ZM138.608 113.694C139.405 113.694 139.975 113.56 140.319 113.286C140.662 113.014 140.833 112.621 140.833 112.104C140.833 111.587 140.654 111.234 140.292 111.015C139.931 110.796 139.389 110.685 138.666 110.685H137.246V113.692H138.611L138.608 113.694ZM138.848 118.052C139.646 118.052 140.263 117.904 140.707 117.609C141.147 117.313 141.366 116.852 141.366 116.224C141.366 115.651 141.15 115.232 140.72 114.966C140.29 114.699 139.664 114.565 138.848 114.565H137.244V118.052H138.848Z" fill="white"/>
<path d="M152.516 109.759H153.683V115.198C153.683 115.752 153.738 116.216 153.852 116.59C153.965 116.965 154.116 117.266 154.308 117.49C154.501 117.714 154.728 117.878 154.989 117.975C155.251 118.073 155.533 118.123 155.834 118.123C156.135 118.123 156.43 118.073 156.692 117.975C156.953 117.878 157.185 117.714 157.381 117.49C157.579 117.266 157.732 116.965 157.845 116.59C157.959 116.216 158.014 115.752 158.014 115.198V109.759H159.139V115.171C159.139 115.913 159.054 116.535 158.885 117.041C158.716 117.548 158.484 117.957 158.188 118.271C157.893 118.584 157.544 118.809 157.14 118.946C156.737 119.08 156.301 119.149 155.831 119.149C155.361 119.149 154.923 119.08 154.517 118.946C154.108 118.811 153.757 118.584 153.461 118.271C153.165 117.957 152.933 117.548 152.764 117.041C152.595 116.535 152.511 115.913 152.511 115.171V109.759H152.516ZM154.612 108.931C154.406 108.931 154.24 108.865 154.113 108.733C153.986 108.601 153.923 108.438 153.923 108.24C153.923 108.042 153.986 107.868 154.113 107.741C154.24 107.615 154.406 107.552 154.612 107.552C154.818 107.552 154.973 107.615 155.105 107.741C155.237 107.868 155.303 108.034 155.303 108.24C155.303 108.446 155.237 108.601 155.105 108.733C154.973 108.865 154.81 108.931 154.612 108.931ZM157.032 108.931C156.834 108.931 156.671 108.865 156.539 108.733C156.407 108.601 156.341 108.438 156.341 108.24C156.341 108.042 156.407 107.868 156.539 107.741C156.671 107.615 156.834 107.552 157.032 107.552C157.23 107.552 157.404 107.615 157.531 107.741C157.658 107.868 157.721 108.034 157.721 108.24C157.721 108.446 157.658 108.601 157.531 108.733C157.404 108.865 157.238 108.931 157.032 108.931Z" fill="white"/>
<path d="M169.388 109.759H170.555V113.626H174.844V109.759H176.026V118.98H174.844V114.636H170.555V118.98H169.388V109.759Z" fill="white"/>
<path d="M186.305 109.759H187.514L190.848 115.551L191.845 117.463H191.901C191.872 116.994 191.843 116.511 191.808 116.008C191.777 115.506 191.758 115.013 191.758 114.525V109.759H192.869V118.98H191.661L188.314 113.175L187.316 111.278H187.26C187.297 111.748 187.332 112.223 187.366 112.705C187.398 113.188 187.416 113.673 187.416 114.161V118.983H186.305V109.762V109.759Z" fill="white"/>
<path d="M204.029 109.759H209.348V110.743H205.199V113.639H208.701V114.636H205.199V117.98H209.488V118.977H204.029V109.757V109.759Z" fill="white"/>
</g>
<defs>
<clipPath id="clip0_44_886">
<rect width="345" height="424" fill="white"/>
</clipPath>
</defs>
</svg>
