<svg width="24" height="38" viewBox="0 0 24 38" fill="none" xmlns="http://www.w3.org/2000/svg">
<path d="M12.7589 22.4225L11.8529 22.5081V23.4181V35.7647C11.8529 35.8297 11.8003 35.8824 11.7353 35.8824C11.6703 35.8824 11.6176 35.8297 11.6176 35.7647V23.4181V22.5081L10.7117 22.4225C5.2634 21.9078 1 17.3188 1 11.7353C1 5.80636 5.80635 1 11.7353 1C17.6642 1 22.4706 5.80636 22.4706 11.7353C22.4706 17.3188 18.2072 21.9078 12.7589 22.4225Z" fill="#0CA2B7" stroke="black" stroke-width="2"/>
<path d="M11.7353 8.32355C13.6195 8.32355 15.147 9.85105 15.147 11.7353C15.147 13.6196 13.6195 15.1471 11.7353 15.1471C9.85102 15.1471 8.32352 13.6196 8.32352 11.7353C8.32352 9.85105 9.85102 8.32355 11.7353 8.32355Z" fill="white" stroke="black"/>
<path opacity="0.3" d="M11.7353 38C13.2784 38 14.5294 37.3745 14.5294 36.6029C14.5294 35.8314 13.2784 35.2059 11.7353 35.2059C10.1921 35.2059 8.94116 35.8314 8.94116 36.6029C8.94116 37.3745 10.1921 38 11.7353 38Z" fill="black"/>
</svg>
