<svg width="23" height="35" viewBox="0 0 23 35" fill="none" xmlns="http://www.w3.org/2000/svg">
<path d="M12.5971 20.5737L11.6912 20.6593V21.5693V32.9412C11.6912 32.9471 11.6902 32.9502 11.6893 32.9523C11.6881 32.9551 11.6859 32.9586 11.6826 32.962C11.6808 32.9637 11.6791 32.9651 11.6775 32.9662C11.6758 32.9673 11.6743 32.9681 11.6729 32.9687C11.6708 32.9696 11.6677 32.9706 11.6618 32.9706C11.6559 32.9706 11.6527 32.9696 11.6506 32.9687C11.6478 32.9675 11.6444 32.9654 11.641 32.962C11.6376 32.9586 11.6354 32.9551 11.6342 32.9523C11.6333 32.9502 11.6323 32.9471 11.6323 32.9412V21.5693V20.6593L10.7264 20.5737C5.74839 20.1034 1.85294 15.9104 1.85294 10.8088C1.85294 5.39156 6.2445 1 11.6618 1C17.079 1 21.4706 5.39156 21.4706 10.8088C21.4706 15.9104 17.5751 20.1034 12.5971 20.5737Z" fill="#0CA2B7" stroke="black" stroke-width="2"/>
<path d="M11.6618 7.70587C13.3755 7.70587 14.7647 9.09511 14.7647 10.8088C14.7647 12.5225 13.3755 13.9118 11.6618 13.9118C9.94806 13.9118 8.55882 12.5225 8.55882 10.8088C8.55882 9.09511 9.94806 7.70587 11.6618 7.70587Z" fill="white" stroke="black"/>
<path opacity="0.3" d="M11.6618 35C13.0831 35 14.2353 34.4239 14.2353 33.7132C14.2353 33.0026 13.0831 32.4265 11.6618 32.4265C10.2404 32.4265 9.08823 33.0026 9.08823 33.7132C9.08823 34.4239 10.2404 35 11.6618 35Z" fill="black"/>
</svg>
