<svg width="52" height="52" viewBox="0 0 52 52" fill="none" xmlns="http://www.w3.org/2000/svg">
<path d="M25.7577 47.6146C23.0859 47.6146 20.5829 47.1066 18.2487 46.0905C15.9146 45.0745 13.884 43.7037 12.1569 41.978C10.4298 40.2495 9.059 38.2189 8.04441 35.8862C7.02982 33.5535 6.52181 31.0505 6.52039 28.3772H10.7953C10.7953 32.5453 12.2474 36.0814 15.1515 38.9856C18.0557 41.8897 21.591 43.341 25.7577 43.3396C29.9258 43.3396 33.4619 41.8875 36.366 38.9834C39.2701 36.0793 40.7215 32.5439 40.7201 28.3772C40.7201 24.2092 39.268 20.673 36.3639 17.7689C33.4598 14.8648 29.9244 13.4135 25.7577 13.4149H25.4371L28.7502 16.728L25.7577 19.8273L17.2078 11.2774L25.7577 2.72748L28.7502 5.82682L25.4371 9.13992H25.7577C28.4296 9.13992 30.9325 9.64793 33.2667 10.6639C35.6008 11.68 37.6314 13.0515 39.3585 14.7786C41.0856 16.5057 42.4571 18.5363 43.4731 20.8704C44.4892 23.2045 44.9965 25.7068 44.995 28.3772C44.995 31.0491 44.487 33.5521 43.471 35.8862C42.455 38.2203 41.0842 40.2509 39.3585 41.978C37.63 43.7051 35.5994 45.0767 33.2667 46.0927C30.934 47.1087 28.431 47.616 25.7577 47.6146Z" fill="white"/>
</svg>
