<svg width="44" height="46" viewBox="0 0 44 46" fill="none" xmlns="http://www.w3.org/2000/svg">
<g filter="url(#filter0_d_97_376)">
<path d="M37.9466 27.8661L29.8306 24.2344C29.516 24.0982 29.1724 24.0426 28.8309 24.0726C28.4894 24.1026 28.1608 24.2173 27.8747 24.4063C27.8518 24.4207 27.83 24.4368 27.8094 24.4544L23.5469 28.0878C23.452 28.1457 23.3444 28.1792 23.2334 28.1855C23.1225 28.1918 23.0118 28.1707 22.911 28.1239C20.1197 26.7764 17.2305 23.9095 15.883 21.1509C15.8353 21.0509 15.8132 20.9406 15.8186 20.8299C15.824 20.7193 15.8567 20.6116 15.9139 20.5167L19.5577 16.1838C19.5749 16.1631 19.5903 16.1408 19.6058 16.1184C19.7942 15.8328 19.9085 15.5048 19.9385 15.1639C19.9685 14.8231 19.9132 14.4801 19.7777 14.1659L16.1391 6.06376C15.9634 5.6534 15.6594 5.3111 15.2726 5.08827C14.8858 4.86544 14.4372 4.7741 13.9941 4.82797C11.8312 5.11315 9.846 6.17593 8.4094 7.8178C6.9728 9.45968 6.183 11.5684 6.18752 13.75C6.18752 27.0188 16.9813 37.8125 30.25 37.8125C32.4317 37.817 34.5403 37.0272 36.1822 35.5906C37.8241 34.154 38.8869 32.1689 39.1721 30.0059C39.2255 29.5648 39.1351 29.1183 38.9143 28.7327C38.6935 28.3471 38.3541 28.0432 37.9466 27.8661ZM37.8125 29.8341C37.5698 31.6658 36.6683 33.3465 35.2764 34.5618C33.8846 35.7771 32.0978 36.4439 30.25 36.4375C17.741 36.4375 7.56252 26.2591 7.56252 13.75C7.55612 11.9023 8.22291 10.1154 9.43824 8.7236C10.6536 7.33176 12.3342 6.43021 14.166 6.18751C14.1934 6.1858 14.221 6.1858 14.2485 6.18751C14.3841 6.18866 14.5163 6.22991 14.6286 6.30607C14.7408 6.38222 14.828 6.48987 14.8792 6.61547L18.5075 14.7177C18.5499 14.8167 18.5683 14.9243 18.5615 15.0317C18.5546 15.1392 18.5226 15.2436 18.468 15.3364L14.826 19.6677C14.8088 19.69 14.7916 19.7106 14.7761 19.7347C14.5821 20.0314 14.4678 20.3731 14.4443 20.7269C14.4208 21.0806 14.4889 21.4345 14.6421 21.7542C16.1356 24.8119 19.2156 27.8695 22.3077 29.3631C22.6296 29.5152 22.9855 29.5814 23.3406 29.5552C23.6957 29.529 24.038 29.4113 24.3341 29.2136L24.3977 29.1655L28.6653 25.5355C28.7566 25.4797 28.8599 25.4464 28.9665 25.4383C29.0732 25.4303 29.1803 25.4477 29.2789 25.4891L37.3931 29.1259C37.5301 29.1829 37.6449 29.2827 37.7205 29.4103C37.7961 29.5379 37.8284 29.6866 37.8125 29.8341Z" fill="white"/>
</g>
<defs>
<filter id="filter0_d_97_376" x="-4" y="0" width="52" height="52" filterUnits="userSpaceOnUse" color-interpolation-filters="sRGB">
<feFlood flood-opacity="0" result="BackgroundImageFix"/>
<feColorMatrix in="SourceAlpha" type="matrix" values="0 0 0 0 0 0 0 0 0 0 0 0 0 0 0 0 0 0 127 0" result="hardAlpha"/>
<feOffset dy="4"/>
<feGaussianBlur stdDeviation="2"/>
<feComposite in2="hardAlpha" operator="out"/>
<feColorMatrix type="matrix" values="0 0 0 0 0 0 0 0 0 0 0 0 0 0 0 0 0 0 1 0"/>
<feBlend mode="normal" in2="BackgroundImageFix" result="effect1_dropShadow_97_376"/>
<feBlend mode="normal" in="SourceGraphic" in2="effect1_dropShadow_97_376" result="shape"/>
</filter>
</defs>
</svg>
