<svg width="36" height="36" viewBox="0 0 36 36" fill="none" xmlns="http://www.w3.org/2000/svg">
<path d="M31.9851 29.7255C29.7787 25.9128 26.3149 23.2375 22.2901 22.1029C24.2469 21.1082 25.8116 19.4835 26.732 17.4907C27.6525 15.4979 27.8749 13.2532 27.3635 11.1185C26.8521 8.98382 25.6366 7.08359 23.9131 5.72422C22.1896 4.36484 20.0584 3.62555 17.8634 3.62555C15.6683 3.62555 13.5372 4.36484 11.8136 5.72422C10.0901 7.08359 8.87466 8.98382 8.36324 11.1185C7.85182 13.2532 8.07426 15.4979 8.99467 17.4907C9.91509 19.4835 11.4798 21.1082 13.4366 22.1029C9.41182 23.2361 5.94803 25.9114 3.74164 29.7255C3.68106 29.8208 3.64038 29.9274 3.62205 30.0388C3.60372 30.1502 3.60812 30.2642 3.63499 30.3739C3.66186 30.4836 3.71063 30.5867 3.77839 30.6771C3.84614 30.7674 3.93147 30.8431 4.02924 30.8996C4.12702 30.9562 4.23521 30.9923 4.34732 31.0059C4.45942 31.0196 4.57313 31.0103 4.68159 30.9789C4.79004 30.9474 4.89102 30.8943 4.97843 30.8228C5.06584 30.7513 5.13789 30.6629 5.19024 30.5628C7.87112 25.931 12.6077 23.1663 17.8634 23.1663C23.1191 23.1663 27.8556 25.931 30.5365 30.5628C30.5888 30.6629 30.6609 30.7513 30.7483 30.8228C30.8357 30.8943 30.9367 30.9474 31.0451 30.9789C31.1536 31.0103 31.2673 31.0196 31.3794 31.0059C31.4915 30.9923 31.5997 30.9562 31.6975 30.8996C31.7952 30.8431 31.8806 30.7674 31.9483 30.6771C32.0161 30.5867 32.0649 30.4836 32.0917 30.3739C32.1186 30.2642 32.123 30.1502 32.1047 30.0388C32.0863 29.9274 32.0457 29.8208 31.9851 29.7255ZM9.76909 13.3974C9.76909 11.7965 10.2438 10.2315 11.1332 8.90045C12.0226 7.56935 13.2868 6.53189 14.7658 5.91925C16.2448 5.30661 17.8723 5.14632 19.4425 5.45864C21.0126 5.77096 22.4549 6.54186 23.5869 7.67387C24.7189 8.80587 25.4898 10.2481 25.8021 11.8183C26.1144 13.3884 25.9541 15.0159 25.3415 16.4949C24.7289 17.974 23.6914 19.2381 22.3603 20.1275C21.0292 21.0169 19.4643 21.4917 17.8634 21.4917C15.7174 21.4891 13.6601 20.6355 12.1427 19.118C10.6253 17.6006 9.77167 15.5433 9.76909 13.3974Z" fill="#2C2C2D" fill-opacity="0.59"/>
</svg>
