<svg width="56" height="40" viewBox="0 0 56 40" fill="none" xmlns="http://www.w3.org/2000/svg">
<path d="M39.0774 3.59959C39.0774 3.96908 39.2242 4.32344 39.4854 4.58471C39.7467 4.84598 40.1011 4.99276 40.4706 4.99276C40.8401 4.99276 41.1944 4.84598 41.4557 4.58471C41.717 4.32344 41.8638 3.96908 41.8638 3.59959V1.50982C41.8638 1.14032 41.717 0.785963 41.4557 0.524691C41.1944 0.263419 40.8401 0.116638 40.4706 0.116638C40.1011 0.116638 39.7467 0.263419 39.4854 0.524691C39.2242 0.785963 39.0774 1.14032 39.0774 1.50982V3.59959ZM16.7865 19.6211V23.8007H19.5729V19.6211H23.7524V16.8348H19.5729V12.6552H16.7865V16.8348H12.607V19.6211H16.7865Z" fill="white"/>
<path fill-rule="evenodd" clip-rule="evenodd" d="M0.0684204 9.86884C0.0684204 8.76036 0.508763 7.69727 1.29258 6.91346C2.07639 6.12964 3.13948 5.6893 4.24796 5.6893H32.1115C33.22 5.6893 34.2831 6.12964 35.0669 6.91346C35.8507 7.69727 36.2911 8.76036 36.2911 9.86884V12.6552H37.6843V11.262H39.0774V9.86884C39.0774 9.49934 39.2242 9.14498 39.4855 8.88371C39.7468 8.62244 40.1011 8.47566 40.4706 8.47566C40.8401 8.47566 41.1945 8.62244 41.4557 8.88371C41.717 9.14498 41.8638 9.49934 41.8638 9.86884V11.262H43.257V12.6552H44.2573C45.3081 12.6553 46.3204 13.0512 47.0924 13.7642L54.4512 20.5559C54.8752 20.9474 55.2136 21.4225 55.445 21.9512C55.6763 22.4799 55.7957 23.0508 55.7956 23.6279V34.9461H48.6541C48.3443 36.1417 47.6461 37.2007 46.6692 37.9566C45.6924 38.7126 44.4922 39.1227 43.257 39.1227C42.0218 39.1227 40.8216 38.7126 39.8447 37.9566C38.8679 37.2007 38.1697 36.1417 37.8598 34.9461H16.611C16.3011 36.1417 15.603 37.2007 14.6261 37.9566C13.6493 38.7126 12.449 39.1227 11.2139 39.1227C9.97866 39.1227 8.77844 38.7126 7.80159 37.9566C6.82474 37.2007 6.12657 36.1417 5.81668 34.9461H0.0684204V9.86884ZM37.8598 32.1597C38.1697 30.964 38.8679 29.9051 39.8447 29.1491C40.8216 28.3932 42.0218 27.983 43.257 27.983C44.4922 27.983 45.6924 28.3932 46.6692 29.1491C47.6461 29.9051 48.3443 30.964 48.6541 32.1597H53.0092V25.1938H36.2911V32.1597H37.8598ZM36.2911 22.4074H52.3489L45.2019 15.8107C44.9446 15.5734 44.6073 15.4416 44.2573 15.4416H36.2911V22.4074ZM32.1115 8.47566C32.481 8.47566 32.8354 8.62244 33.0967 8.88371C33.3579 9.14498 33.5047 9.49934 33.5047 9.86884V32.1597H16.611C16.3011 30.964 15.603 29.9051 14.6261 29.1491C13.6493 28.3932 12.449 27.983 11.2139 27.983C9.97866 27.983 8.77844 28.3932 7.80159 29.1491C6.82474 29.9051 6.12657 30.964 5.81668 32.1597H2.85478V9.86884C2.85478 9.49934 3.00156 9.14498 3.26283 8.88371C3.5241 8.62244 3.87846 8.47566 4.24796 8.47566H32.1115ZM11.2139 36.3392C11.9528 36.3392 12.6616 36.0457 13.1841 35.5231C13.7066 35.0006 14.0002 34.2919 14.0002 33.5529C14.0002 32.8139 13.7066 32.1052 13.1841 31.5826C12.6616 31.0601 11.9528 30.7665 11.2139 30.7665C10.4749 30.7665 9.76614 31.0601 9.2436 31.5826C8.72106 32.1052 8.4275 32.8139 8.4275 33.5529C8.4275 34.2919 8.72106 35.0006 9.2436 35.5231C9.76614 36.0457 10.4749 36.3392 11.2139 36.3392ZM46.0433 33.5529C46.0433 34.2919 45.7498 35.0006 45.2272 35.5231C44.7047 36.0457 43.996 36.3392 43.257 36.3392C42.518 36.3392 41.8093 36.0457 41.2867 35.5231C40.7642 35.0006 40.4706 34.2919 40.4706 33.5529C40.4706 32.8139 40.7642 32.1052 41.2867 31.5826C41.8093 31.0601 42.518 30.7665 43.257 30.7665C43.996 30.7665 44.7047 31.0601 45.2272 31.5826C45.7498 32.1052 46.0433 32.8139 46.0433 33.5529Z" fill="white"/>
<path d="M45.3467 9.86886C45.3467 9.49936 45.4935 9.145 45.7548 8.88373C46.016 8.62246 46.3704 8.47568 46.7399 8.47568H48.8297C49.1992 8.47568 49.5535 8.62246 49.8148 8.88373C50.0761 9.145 50.2228 9.49936 50.2228 9.86886C50.2228 10.2384 50.0761 10.5927 49.8148 10.854C49.5535 11.1153 49.1992 11.262 48.8297 11.262H46.7399C46.3704 11.262 46.016 11.1153 45.7548 10.854C45.4935 10.5927 45.3467 10.2384 45.3467 9.86886ZM44.4105 3.96039C44.2744 4.08309 44.1638 4.23145 44.0851 4.39695C44.0064 4.56246 43.9612 4.74186 43.9519 4.92489C43.9427 5.10791 43.9696 5.29097 44.0313 5.46356C44.0929 5.63615 44.1879 5.79489 44.311 5.93069C44.434 6.06648 44.5827 6.17666 44.7484 6.25492C44.9141 6.33318 45.0936 6.37798 45.2767 6.38674C45.4597 6.39551 45.6427 6.36808 45.8151 6.30602C45.9876 6.24396 46.1461 6.14849 46.2815 6.02508L47.5563 4.87152C47.829 4.62312 47.992 4.27671 48.0097 3.90827C48.0273 3.53982 47.8981 3.17942 47.6504 2.90609C47.4027 2.63275 47.0568 2.46881 46.6884 2.4502C46.32 2.4316 45.9592 2.55985 45.6853 2.80683L44.4105 3.96039Z" fill="white"/>
</svg>
