<svg width="49" height="49" viewBox="0 0 49 49" fill="none" xmlns="http://www.w3.org/2000/svg">
<path d="M45.5409 15.6257H33.7323V3.8171C33.7323 2.94018 33.3839 2.09918 32.7639 1.47911C32.1438 0.859035 31.3028 0.510681 30.4259 0.510681H19.0896C18.2127 0.510681 17.3717 0.859035 16.7516 1.47911C16.1315 2.09918 15.7832 2.94018 15.7832 3.8171V15.6257H3.97457C3.09765 15.6257 2.25665 15.9741 1.63658 16.5941C1.01651 17.2142 0.668152 18.0552 0.668152 18.9321V30.2684C0.668152 31.1453 1.01651 31.9863 1.63658 32.6064C2.25665 33.2265 3.09765 33.5748 3.97457 33.5748H15.7832V45.3835C15.7832 46.2604 16.1315 47.1014 16.7516 47.7214C17.3717 48.3415 18.2127 48.6899 19.0896 48.6899H30.4259C31.3028 48.6899 32.1438 48.3415 32.7639 47.7214C33.3839 47.1014 33.7323 46.2604 33.7323 45.3835V33.5748H45.5409C46.4178 33.5748 47.2588 33.2265 47.8789 32.6064C48.499 31.9863 48.8473 31.1453 48.8473 30.2684V18.9321C48.8473 18.0552 48.499 17.2142 47.8789 16.5941C47.2588 15.9741 46.4178 15.6257 45.5409 15.6257ZM46.0133 30.2684C46.0133 30.3937 45.9635 30.5138 45.8749 30.6024C45.7863 30.691 45.6662 30.7408 45.5409 30.7408H32.3153C31.9394 30.7408 31.579 30.8901 31.3133 31.1558C31.0475 31.4215 30.8982 31.782 30.8982 32.1578V45.3835C30.8982 45.5087 30.8485 45.6289 30.7599 45.7175C30.6713 45.806 30.5512 45.8558 30.4259 45.8558H19.0896C18.9643 45.8558 18.8442 45.806 18.7556 45.7175C18.667 45.6289 18.6173 45.5087 18.6173 45.3835V32.1578C18.6173 31.782 18.468 31.4215 18.2022 31.1558C17.9365 30.8901 17.576 30.7408 17.2002 30.7408H3.97457C3.84929 30.7408 3.72915 30.691 3.64057 30.6024C3.55199 30.5138 3.50222 30.3937 3.50222 30.2684V18.9321C3.50222 18.8069 3.55199 18.6867 3.64057 18.5981C3.72915 18.5096 3.84929 18.4598 3.97457 18.4598H17.2002C17.576 18.4598 17.9365 18.3105 18.2022 18.0447C18.468 17.779 18.6173 17.4186 18.6173 17.0428V3.8171C18.6173 3.69182 18.667 3.57168 18.7556 3.4831C18.8442 3.39452 18.9643 3.34475 19.0896 3.34475H30.4259C30.5512 3.34475 30.6713 3.39452 30.7599 3.4831C30.8485 3.57168 30.8982 3.69182 30.8982 3.8171V17.0428C30.8982 17.4186 31.0475 17.779 31.3133 18.0447C31.579 18.3105 31.9394 18.4598 32.3153 18.4598H45.5409C45.6662 18.4598 45.7863 18.5096 45.8749 18.5981C45.9635 18.6867 46.0133 18.8069 46.0133 18.9321V30.2684Z" fill="white"/>
</svg>
