<svg width="41" height="52" viewBox="0 0 41 52" fill="none" xmlns="http://www.w3.org/2000/svg">
<path d="M20.278 11.2178C18.5339 11.2178 16.829 11.7362 15.3788 12.7074C13.9287 13.6786 12.7984 15.059 12.131 16.674C11.4635 18.289 11.2889 20.0662 11.6292 21.7807C11.9694 23.4952 12.8093 25.0701 14.0425 26.3062C15.2758 27.5423 16.847 28.3841 18.5576 28.7251C20.2682 29.0662 22.0412 28.8911 23.6525 28.2222C25.2639 27.5532 26.6411 26.4203 27.61 24.9668C28.579 23.5133 29.0962 21.8045 29.0962 20.0564C29.0962 17.7122 28.1671 15.4641 26.5134 13.8066C24.8596 12.149 22.6167 11.2178 20.278 11.2178ZM20.278 26.1038C19.0846 26.1038 17.9181 25.7491 16.9259 25.0846C15.9337 24.4201 15.1604 23.4757 14.7037 22.3706C14.247 21.2656 14.1276 20.0497 14.3604 18.8766C14.5932 17.7035 15.1678 16.6259 16.0116 15.7802C16.8554 14.9344 17.9305 14.3585 19.1009 14.1251C20.2713 13.8918 21.4844 14.0115 22.5869 14.4693C23.6894 14.927 24.6317 15.7021 25.2946 16.6966C25.9576 17.6911 26.3115 18.8603 26.3115 20.0564C26.3115 21.6603 25.6758 23.1985 24.5443 24.3326C23.4128 25.4667 21.8781 26.1038 20.278 26.1038ZM20.278 0.0532837C14.9869 0.0594395 9.91432 2.16888 6.17299 5.91885C2.43165 9.66883 0.327065 14.7531 0.320923 20.0564C0.320923 27.2459 3.64864 34.8819 9.94439 42.1389C12.786 45.4304 15.9841 48.3948 19.4797 50.9774C19.7137 51.1416 19.9924 51.2296 20.278 51.2296C20.5636 51.2296 20.8422 51.1416 21.0762 50.9774C24.5718 48.3948 27.7699 45.4304 30.6115 42.1389C36.9073 34.8819 40.235 27.2528 40.235 20.0564C40.2288 14.7531 38.1243 9.66883 34.3829 5.91885C30.6416 2.16888 25.569 0.0594395 20.278 0.0532837ZM20.278 48.0863C16.7971 45.3929 3.10562 33.9236 3.10562 20.0564C3.10562 15.4915 4.91485 11.1136 8.13528 7.88568C11.3557 4.65781 15.7236 2.84441 20.278 2.84441C24.8323 2.84441 29.2002 4.65781 32.4206 7.88568C35.6411 11.1136 37.4503 15.4915 37.4503 20.0564C37.4503 33.9236 23.7588 45.3929 20.278 48.0863Z" fill="white"/>
</svg>
