<svg width="14" height="11" viewBox="0 0 14 11" fill="none" xmlns="http://www.w3.org/2000/svg">
<path d="M13.463 1.34932L4.61236 10.4541C4.53457 10.5341 4.42912 10.5789 4.31918 10.5789C4.20924 10.5789 4.10379 10.5341 4.026 10.4541L0.153828 6.47077C0.0805448 6.38987 0.0406487 6.28286 0.0425451 6.17229C0.0444415 6.06173 0.0879823 5.95623 0.163995 5.87804C0.240007 5.79984 0.342556 5.75505 0.450037 5.7531C0.557519 5.75115 0.66154 5.79219 0.740187 5.86758L4.31918 9.54863L12.8767 0.746122C12.9553 0.670734 13.0594 0.629692 13.1668 0.631643C13.2743 0.633594 13.3769 0.678385 13.4529 0.75658C13.5289 0.834775 13.5724 0.940269 13.5743 1.05084C13.5762 1.1614 13.5363 1.26841 13.463 1.34932Z" fill="white"/>
</svg>
