<svg width="71" height="48" viewBox="0 0 71 48" fill="none" xmlns="http://www.w3.org/2000/svg">
<path d="M70.0239 23.2774C69.9229 23.0457 67.4518 17.566 61.9335 12.0477C56.8131 6.93324 48.0158 0.832764 35.1318 0.832764C22.2477 0.832764 13.4504 6.93324 8.33005 12.0477C2.8117 17.566 0.340623 23.0368 0.239641 23.2774C0.138102 23.5055 0.0856323 23.7524 0.0856323 24.0021C0.0856323 24.2518 0.138102 24.4987 0.239641 24.7268C0.340623 24.9555 2.8117 30.4352 8.33005 35.9536C13.4504 41.068 22.2477 47.1655 35.1318 47.1655C48.0158 47.1655 56.8131 41.068 61.9335 35.9536C67.4518 30.4352 69.9229 24.9644 70.0239 24.7268C70.1254 24.4987 70.1779 24.2518 70.1779 24.0021C70.1779 23.7524 70.1254 23.5055 70.0239 23.2774ZM35.1318 43.6014C25.8118 43.6014 17.6738 40.2097 10.9407 33.5241C8.11821 30.719 5.72977 27.5087 3.85419 23.9991C5.72923 20.4901 8.11775 17.2807 10.9407 14.4772C17.6738 7.78862 25.8118 4.39682 35.1318 4.39682C44.4518 4.39682 52.5897 7.78862 59.3228 14.4772C62.1458 17.2807 64.5343 20.4901 66.4093 23.9991C64.5174 27.6256 55.0311 43.6014 35.1318 43.6014ZM35.1318 10.3369C32.4296 10.3369 29.7882 11.1382 27.5414 12.6394C25.2947 14.1406 23.5436 16.2744 22.5095 18.7708C21.4755 21.2673 21.2049 24.0143 21.7321 26.6645C22.2592 29.3147 23.5604 31.7491 25.4711 33.6598C27.3818 35.5705 29.8162 36.8717 32.4664 37.3988C35.1166 37.926 37.8636 37.6554 40.3601 36.6214C42.8565 35.5873 44.9903 33.8362 46.4915 31.5895C47.9927 29.3427 48.794 26.7013 48.794 23.9991C48.7893 20.3771 47.3483 16.9048 44.7872 14.3437C42.2261 11.7826 38.7538 10.3416 35.1318 10.3369ZM35.1318 34.0973C33.1345 34.0973 31.1822 33.5051 29.5215 32.3955C27.8609 31.2859 26.5666 29.7087 25.8023 27.8635C25.038 26.0183 24.838 23.9879 25.2276 22.0291C25.6173 20.0702 26.579 18.2709 27.9913 16.8587C29.4035 15.4464 31.2029 14.4846 33.1617 14.095C35.1206 13.7054 37.151 13.9053 38.9962 14.6697C40.8414 15.434 42.4185 16.7283 43.5281 18.3889C44.6377 20.0495 45.2299 22.0019 45.2299 23.9991C45.2299 26.6773 44.166 29.2458 42.2722 31.1396C40.3785 33.0334 37.81 34.0973 35.1318 34.0973Z" fill="#F0EFEF"/>
</svg>
