<svg width="15" height="11" viewBox="0 0 15 11" fill="none" xmlns="http://www.w3.org/2000/svg">
<path d="M14.6379 1.55195L5.07345 10.7751C4.98939 10.8561 4.87543 10.9016 4.75663 10.9016C4.63782 10.9016 4.52387 10.8561 4.4398 10.7751L0.255338 6.73999C0.176144 6.65804 0.13303 6.54964 0.13508 6.43763C0.137129 6.32563 0.184181 6.21876 0.266324 6.13955C0.348467 6.06034 0.459287 6.01497 0.575436 6.01299C0.691585 6.01102 0.803996 6.05259 0.888986 6.12896L4.75663 9.85786L14.0043 0.940917C14.0893 0.864549 14.2017 0.822974 14.3178 0.82495C14.434 0.826926 14.5448 0.8723 14.627 0.951512C14.7091 1.03072 14.7561 1.13759 14.7582 1.24959C14.7602 1.3616 14.7171 1.47 14.6379 1.55195Z" fill="white"/>
</svg>
