<svg width="15" height="11" viewBox="0 0 15 11" fill="none" xmlns="http://www.w3.org/2000/svg">
<path d="M14.638 1.55195L5.07346 10.7751C4.9894 10.8561 4.87545 10.9016 4.75664 10.9016C4.63783 10.9016 4.52388 10.8561 4.43982 10.7751L0.255353 6.73999C0.176159 6.65804 0.133046 6.54964 0.135095 6.43763C0.137144 6.32563 0.184197 6.21876 0.266339 6.13955C0.348482 6.06034 0.459302 6.01497 0.575451 6.01299C0.691601 6.01102 0.804011 6.05259 0.889001 6.12896L4.75664 9.85786L14.0043 0.940917C14.0893 0.864549 14.2017 0.822974 14.3179 0.82495C14.434 0.826926 14.5448 0.8723 14.627 0.951512C14.7091 1.03072 14.7562 1.13759 14.7582 1.24959C14.7603 1.3616 14.7171 1.47 14.638 1.55195Z" fill="white"/>
</svg>
